<svg viewBox="0 0 800 600" xmlns="http://www.w3.org/2000/svg">
<defs>
<linearGradient id="bg" x1="0%" y1="0%" x2="100%" y2="100%">
<stop offset="0%" stop-color="#000000"/>
<stop offset="52%" stop-color="#1a1a1a"/>
<stop offset="78%" stop-color="#2e1f07"/>
<stop offset="100%" stop-color="#3d2a0e"/>
</linearGradient>
</defs>
<rect width="800" height="600" fill="url(#bg)"/>
<g stroke="#ECAC60" fill="none" stroke-linecap="round" stroke-linejoin="round" opacity="0.62">
  <polygon points="340.0,185.0 363.9,207.3 396.6,208.4 397.7,241.1 420.0,265.0 397.7,288.9 396.6,321.6 363.9,322.7 340.0,345.0 316.1,322.7 283.4,321.6 282.3,288.9 260.0,265.0 282.3,241.1 283.4,208.4 316.1,207.3" stroke-width="3.5" fill="#ECAC60" fill-opacity="0.12"/>
  <circle cx="340" cy="265" r="36" stroke-width="3.5" fill="none"/>
  <circle cx="340" cy="265" r="10" fill="#ECAC60" fill-opacity="0.45" stroke="none"/>
  <polygon points="460.0,245.0 483.6,264.1 512.0,275.0 507.2,305.0 512.0,335.0 483.6,345.9 460.0,365.0 436.4,345.9 408.0,335.0 412.8,305.0 408.0,275.0 436.4,264.1" stroke-width="3.5" fill="#ECAC60" fill-opacity="0.12"/>
  <circle cx="460" cy="305" r="28" stroke-width="3.5" fill="none"/>
  <circle cx="460" cy="305" r="10" fill="#ECAC60" fill-opacity="0.45" stroke="none"/>
  <path d="M 345 200 L 390 220 L 372 232 Z" fill="#ECAC60" fill-opacity="0.4" stroke="none"/>
  <line x1="415" y1="200" x2="468" y2="248" stroke-width="5" opacity="0.4" stroke-dasharray="6 4"/>

</g>
<text x="400" y="558" text-anchor="middle" font-family="system-ui,sans-serif" font-size="11" font-weight="700" letter-spacing="3" fill="#ECAC60" opacity="0.25">HR AUTOMATION</text>
</svg>
