<svg viewBox="0 0 800 600" xmlns="http://www.w3.org/2000/svg">
<defs>
<linearGradient id="bg" x1="0%" y1="0%" x2="100%" y2="100%">
<stop offset="0%" stop-color="#000000"/>
<stop offset="52%" stop-color="#1a1a1a"/>
<stop offset="78%" stop-color="#2e1f07"/>
<stop offset="100%" stop-color="#3d2a0e"/>
</linearGradient>
</defs>
<rect width="800" height="600" fill="url(#bg)"/>
<g stroke="#ECAC60" fill="none" stroke-linecap="round" stroke-linejoin="round" opacity="0.62">

  <path d="M 400 208 C 360 208 295 218 272 238 L 272 390 C 295 370 360 360 400 360 Z" stroke-width="5" fill="#ECAC60" fill-opacity="0.1"/>
  <path d="M 400 208 C 440 208 505 218 528 238 L 528 390 C 505 370 440 360 400 360 Z" stroke-width="5" fill="#ECAC60" fill-opacity="0.1"/>
  <line x1="400" y1="208" x2="400" y2="360" stroke-width="5"/>
  <line x1="295" y1="268" x2="395" y2="258" stroke-width="2.5" opacity="0.55"/>
  <line x1="295" y1="293" x2="395" y2="285" stroke-width="2.5" opacity="0.55"/>
  <line x1="295" y1="318" x2="395" y2="312" stroke-width="2.5" opacity="0.55"/>
  <line x1="405" y1="258" x2="505" y2="268" stroke-width="2.5" opacity="0.55"/>
  <line x1="405" y1="285" x2="505" y2="293" stroke-width="2.5" opacity="0.55"/>
  <line x1="405" y1="312" x2="505" y2="318" stroke-width="2.5" opacity="0.55"/>
  <ellipse cx="400" cy="360" rx="16" ry="6" fill="#ECAC60" fill-opacity="0.4" stroke="none"/>

</g>
<text x="400" y="558" text-anchor="middle" font-family="system-ui,sans-serif" font-size="11" font-weight="700" letter-spacing="3" fill="#ECAC60" opacity="0.25">BLOG</text>
</svg>
