<svg viewBox="0 0 800 600" xmlns="http://www.w3.org/2000/svg">
<defs>
<linearGradient id="bg" x1="0%" y1="0%" x2="100%" y2="100%">
<stop offset="0%" stop-color="#000000"/>
<stop offset="52%" stop-color="#1a1a1a"/>
<stop offset="78%" stop-color="#2e1f07"/>
<stop offset="100%" stop-color="#3d2a0e"/>
</linearGradient>
</defs>
<rect width="800" height="600" fill="url(#bg)"/>
<g stroke="#ECAC60" fill="none" stroke-linecap="round" stroke-linejoin="round" opacity="0.62">

  <path d="M 340 205 Q 295 205 285 255 Q 275 310 295 365 Q 305 398 328 395 Q 350 393 360 360 Q 372 325 400 325 Q 428 325 440 360 Q 450 393 472 395 Q 495 398 505 365 Q 525 310 515 255 Q 505 205 460 205 Q 440 205 430 225 Q 418 248 400 248 Q 382 248 370 225 Q 360 205 340 205 Z" stroke-width="5" fill="#ECAC60" fill-opacity="0.1"/>
  <circle cx="400" cy="265" r="18" fill="#ECAC60" fill-opacity="0.3" stroke="none"/>

</g>
<text x="400" y="558" text-anchor="middle" font-family="system-ui,sans-serif" font-size="11" font-weight="700" letter-spacing="3" fill="#ECAC60" opacity="0.25">DENTAL</text>
</svg>
