<svg viewBox="0 0 800 600" xmlns="http://www.w3.org/2000/svg">
<defs>
<linearGradient id="bg" x1="0%" y1="0%" x2="100%" y2="100%">
<stop offset="0%" stop-color="#000000"/>
<stop offset="52%" stop-color="#1a1a1a"/>
<stop offset="78%" stop-color="#2e1f07"/>
<stop offset="100%" stop-color="#3d2a0e"/>
</linearGradient>
</defs>
<rect width="800" height="600" fill="url(#bg)"/>
<g stroke="#ECAC60" fill="none" stroke-linecap="round" stroke-linejoin="round" opacity="0.62">

  <path d="M 400 175 A 85 85 0 0 1 485 260 C 485 308 458 332 450 350 L 350 350 C 342 332 315 308 315 260 A 85 85 0 0 1 400 175 Z" stroke-width="5" fill="#ECAC60" fill-opacity="0.1"/>
  <rect x="358" y="350" width="84" height="22" rx="6" stroke-width="3.5" fill="#ECAC60" fill-opacity="0.2"/>
  <rect x="368" y="374" width="64" height="18" rx="5" stroke-width="3.5" fill="#ECAC60" fill-opacity="0.2"/>
  <line x1="400" y1="260" x2="400" y2="320" stroke-width="3.5" opacity="0.6"/>
  <line x1="370" y1="240" x2="400" y2="260" stroke-width="3.5" opacity="0.6"/>
  <line x1="430" y1="240" x2="400" y2="260" stroke-width="3.5" opacity="0.6"/>
  <circle cx="400" cy="230" r="16" fill="#ECAC60" fill-opacity="0.35" stroke="none"/>

</g>
<text x="400" y="558" text-anchor="middle" font-family="system-ui,sans-serif" font-size="11" font-weight="700" letter-spacing="3" fill="#ECAC60" opacity="0.25">ENTREPRENEUR</text>
</svg>
