<svg viewBox="0 0 800 600" xmlns="http://www.w3.org/2000/svg">
<defs>
<linearGradient id="bg" x1="0%" y1="0%" x2="100%" y2="100%">
<stop offset="0%" stop-color="#000000"/>
<stop offset="52%" stop-color="#1a1a1a"/>
<stop offset="78%" stop-color="#2e1f07"/>
<stop offset="100%" stop-color="#3d2a0e"/>
</linearGradient>
</defs>
<rect width="800" height="600" fill="url(#bg)"/>
<g stroke="#ECAC60" fill="none" stroke-linecap="round" stroke-linejoin="round" opacity="0.62">

  <line x1="400" y1="200" x2="400" y2="365" stroke-width="5"/>
  <circle cx="400" cy="196" r="11" fill="#ECAC60" stroke="none"/>
  <line x1="275" y1="232" x2="525" y2="232" stroke-width="5"/>
  <line x1="275" y1="232" x2="248" y2="308" stroke-width="3.5"/>
  <line x1="275" y1="232" x2="302" y2="308" stroke-width="3.5"/>
  <path d="M 242 308 A 38 14 0 0 0 308 308" stroke-width="5" fill="#ECAC60" fill-opacity="0.15"/>
  <line x1="525" y1="232" x2="498" y2="308" stroke-width="3.5"/>
  <line x1="525" y1="232" x2="552" y2="308" stroke-width="3.5"/>
  <path d="M 492 308 A 38 14 0 0 0 558 308" stroke-width="5" fill="#ECAC60" fill-opacity="0.15"/>
  <line x1="358" y1="365" x2="442" y2="365" stroke-width="5"/>
  <line x1="378" y1="338" x2="422" y2="338" stroke-width="3.5"/>
  <line x1="378" y1="338" x2="358" y2="365" stroke-width="3.5"/>
  <line x1="422" y1="338" x2="442" y2="365" stroke-width="3.5"/>

</g>
<text x="400" y="558" text-anchor="middle" font-family="system-ui,sans-serif" font-size="11" font-weight="700" letter-spacing="3" fill="#ECAC60" opacity="0.25">LEGAL</text>
</svg>
