<svg viewBox="0 0 800 600" xmlns="http://www.w3.org/2000/svg">
<defs>
<linearGradient id="bg" x1="0%" y1="0%" x2="100%" y2="100%">
<stop offset="0%" stop-color="#000000"/>
<stop offset="52%" stop-color="#1a1a1a"/>
<stop offset="78%" stop-color="#2e1f07"/>
<stop offset="100%" stop-color="#3d2a0e"/>
</linearGradient>
</defs>
<rect width="800" height="600" fill="url(#bg)"/>
<g stroke="#ECAC60" fill="none" stroke-linecap="round" stroke-linejoin="round" opacity="0.62">

  <circle cx="400" cy="280" r="32" stroke-width="5"/>
  <circle cx="240" cy="200" r="22" stroke-width="3.5"/>
  <circle cx="560" cy="200" r="22" stroke-width="3.5"/>
  <circle cx="240" cy="360" r="22" stroke-width="3.5"/>
  <circle cx="560" cy="360" r="22" stroke-width="3.5"/>
  <circle cx="400" cy="148" r="18" stroke-width="3.5"/>
  <circle cx="400" cy="412" r="18" stroke-width="3.5"/>
  <line x1="370" y1="265" x2="258" y2="214" stroke-width="3.5" opacity="0.6"/>
  <line x1="430" y1="265" x2="542" y2="214" stroke-width="3.5" opacity="0.6"/>
  <line x1="370" y1="295" x2="258" y2="348" stroke-width="3.5" opacity="0.6"/>
  <line x1="430" y1="295" x2="542" y2="348" stroke-width="3.5" opacity="0.6"/>
  <line x1="400" y1="248" x2="400" y2="166" stroke-width="3.5" opacity="0.6"/>
  <line x1="400" y1="312" x2="400" y2="394" stroke-width="3.5" opacity="0.6"/>
  <line x1="262" y1="200" x2="382" y2="270" stroke-width="2.5" opacity="0.35"/>
  <line x1="538" y1="200" x2="418" y2="270" stroke-width="2.5" opacity="0.35"/>

</g>
<text x="400" y="558" text-anchor="middle" font-family="system-ui,sans-serif" font-size="11" font-weight="700" letter-spacing="3" fill="#ECAC60" opacity="0.25">MEMBERSHIP</text>
</svg>
