<svg viewBox="0 0 800 600" xmlns="http://www.w3.org/2000/svg">
<defs>
<linearGradient id="bg" x1="0%" y1="0%" x2="100%" y2="100%">
<stop offset="0%" stop-color="#000000"/>
<stop offset="52%" stop-color="#1a1a1a"/>
<stop offset="78%" stop-color="#2e1f07"/>
<stop offset="100%" stop-color="#3d2a0e"/>
</linearGradient>
</defs>
<rect width="800" height="600" fill="url(#bg)"/>
<g stroke="#ECAC60" fill="none" stroke-linecap="round" stroke-linejoin="round" opacity="0.62">

  <rect x="320" y="188" width="160" height="210" rx="14" stroke-width="5"/>
  <rect x="337" y="205" width="126" height="46" rx="7" stroke-width="3.5" fill="#ECAC60" fill-opacity="0.1"/>
  <text x="450" y="237" text-anchor="end" font-family="monospace" font-size="22" fill="#ECAC60" opacity="0.6" stroke="none">$</text>
  <rect x="338" y="268" width="28" height="20" rx="5" fill="#ECAC60" fill-opacity="0.25" stroke-width="2.5"/>
  <rect x="376" y="268" width="28" height="20" rx="5" fill="#ECAC60" fill-opacity="0.25" stroke-width="2.5"/>
  <rect x="414" y="268" width="28" height="20" rx="5" fill="#ECAC60" fill-opacity="0.25" stroke-width="2.5"/>
  <rect x="338" y="298" width="28" height="20" rx="5" fill="#ECAC60" fill-opacity="0.25" stroke-width="2.5"/>
  <rect x="376" y="298" width="28" height="20" rx="5" fill="#ECAC60" fill-opacity="0.25" stroke-width="2.5"/>
  <rect x="414" y="298" width="28" height="20" rx="5" fill="#ECAC60" fill-opacity="0.25" stroke-width="2.5"/>
  <rect x="338" y="328" width="28" height="20" rx="5" fill="#ECAC60" fill-opacity="0.25" stroke-width="2.5"/>
  <rect x="376" y="328" width="28" height="20" rx="5" fill="#ECAC60" fill-opacity="0.25" stroke-width="2.5"/>
  <rect x="414" y="328" width="66" height="20" rx="5" fill="#ECAC60" fill-opacity="0.4" stroke-width="2.5"/>
  <rect x="338" y="358" width="66" height="20" rx="5" fill="#ECAC60" fill-opacity="0.25" stroke-width="2.5"/>
  <rect x="414" y="358" width="28" height="20" rx="5" fill="#ECAC60" fill-opacity="0.25" stroke-width="2.5"/>

</g>
<text x="400" y="558" text-anchor="middle" font-family="system-ui,sans-serif" font-size="11" font-weight="700" letter-spacing="3" fill="#ECAC60" opacity="0.25">PAYROLL</text>
</svg>
