<svg viewBox="0 0 800 600" xmlns="http://www.w3.org/2000/svg">
<defs>
<linearGradient id="bg" x1="0%" y1="0%" x2="100%" y2="100%">
<stop offset="0%" stop-color="#000000"/>
<stop offset="52%" stop-color="#1a1a1a"/>
<stop offset="78%" stop-color="#2e1f07"/>
<stop offset="100%" stop-color="#3d2a0e"/>
</linearGradient>
</defs>
<rect width="800" height="600" fill="url(#bg)"/>
<g stroke="#ECAC60" fill="none" stroke-linecap="round" stroke-linejoin="round" opacity="0.62">

  <path d="M 400 175 C 438 185 472 218 480 262 L 480 345 Q 448 368 400 378 Q 352 368 320 345 L 320 262 C 328 218 362 185 400 175 Z" stroke-width="5" fill="#ECAC60" fill-opacity="0.1"/>
  <circle cx="400" cy="278" r="38" stroke-width="5" fill="#ECAC60" fill-opacity="0.1"/>
  <path d="M 320 328 L 290 368 L 320 355 Z" fill="#ECAC60" fill-opacity="0.35" stroke="none"/>
  <path d="M 480 328 L 510 368 L 480 355 Z" fill="#ECAC60" fill-opacity="0.35" stroke="none"/>
  <path d="M 370 378 Q 400 410 430 378 Q 430 430 400 432 Q 370 430 370 378 Z" stroke-width="3.5" fill="#ECAC60" fill-opacity="0.15"/>

</g>
<text x="400" y="558" text-anchor="middle" font-family="system-ui,sans-serif" font-size="11" font-weight="700" letter-spacing="3" fill="#ECAC60" opacity="0.25">STARTUP GROWTH</text>
</svg>
