<svg viewBox="0 0 800 600" xmlns="http://www.w3.org/2000/svg">
<defs>
<linearGradient id="bg" x1="0%" y1="0%" x2="100%" y2="100%">
<stop offset="0%" stop-color="#000000"/>
<stop offset="52%" stop-color="#1a1a1a"/>
<stop offset="78%" stop-color="#2e1f07"/>
<stop offset="100%" stop-color="#3d2a0e"/>
</linearGradient>
</defs>
<rect width="800" height="600" fill="url(#bg)"/>
<g stroke="#ECAC60" fill="none" stroke-linecap="round" stroke-linejoin="round" opacity="0.62">

  <rect x="310" y="210" width="180" height="180" rx="14" stroke-width="5"/>
  <rect x="336" y="236" width="128" height="128" rx="8" stroke-width="3.5" fill="#ECAC60" fill-opacity="0.07"/>
  <line x1="356" y1="264" x2="384" y2="264" stroke-width="2.5" opacity="0.6"/>
  <line x1="356" y1="290" x2="416" y2="290" stroke-width="2.5" opacity="0.6"/>
  <line x1="356" y1="316" x2="384" y2="316" stroke-width="2.5" opacity="0.6"/>
  <line x1="416" y1="264" x2="444" y2="264" stroke-width="2.5" opacity="0.6"/>
  <line x1="416" y1="316" x2="444" y2="316" stroke-width="2.5" opacity="0.6"/>
  <line x1="380" y1="340" x2="420" y2="340" stroke-width="2.5" opacity="0.6"/>
  <line x1="340" y1="220" x2="340" y2="210" stroke-width="3.5"/>
  <line x1="365" y1="220" x2="365" y2="210" stroke-width="3.5"/>
  <line x1="390" y1="220" x2="390" y2="210" stroke-width="3.5"/>
  <line x1="415" y1="220" x2="415" y2="210" stroke-width="3.5"/>
  <line x1="440" y1="220" x2="440" y2="210" stroke-width="3.5"/>
  <line x1="340" y1="390" x2="340" y2="380" stroke-width="3.5"/>
  <line x1="365" y1="390" x2="365" y2="380" stroke-width="3.5"/>
  <line x1="390" y1="390" x2="390" y2="380" stroke-width="3.5"/>
  <line x1="415" y1="390" x2="415" y2="380" stroke-width="3.5"/>
  <line x1="440" y1="390" x2="440" y2="380" stroke-width="3.5"/>
  <line x1="310" y1="240" x2="300" y2="240" stroke-width="3.5"/>
  <line x1="310" y1="270" x2="300" y2="270" stroke-width="3.5"/>
  <line x1="310" y1="300" x2="300" y2="300" stroke-width="3.5"/>
  <line x1="310" y1="330" x2="300" y2="330" stroke-width="3.5"/>
  <line x1="490" y1="240" x2="500" y2="240" stroke-width="3.5"/>
  <line x1="490" y1="270" x2="500" y2="270" stroke-width="3.5"/>
  <line x1="490" y1="300" x2="500" y2="300" stroke-width="3.5"/>
  <line x1="490" y1="330" x2="500" y2="330" stroke-width="3.5"/>

</g>
<text x="400" y="558" text-anchor="middle" font-family="system-ui,sans-serif" font-size="11" font-weight="700" letter-spacing="3" fill="#ECAC60" opacity="0.25">TECHNOLOGY</text>
</svg>
